<svg width="640" height="640" fill="none" xmlns="http://www.w3.org/2000/svg"><path fill-rule="evenodd" clip-rule="evenodd" d="M58 105c0-49.706 40.294-90 90-90h399v610H148c-49.706 0-90-40.294-90-90V105Zm90-30c-16.569 0-30 13.431-30 30v430c0 16.569 13.431 30 30 30h339V75H148Z" fill="#3e8ed0"/><path fill-rule="evenodd" clip-rule="evenodd" d="M199.853 303H537.5v60H344.147l41.274 41.5-41.274 41.5H537.5v60H199.853l100.946-101.5L199.853 303ZM367 162H155v-50h212v50Zm84 91-296-1 .169-50 296 1-.169 50Z" fill="#3e8ed0"/></svg>
